<svg width="15" height="30" viewBox="0 0 15 30" fill="none" xmlns="http://www.w3.org/2000/svg">
<path d="M10 13.5H5C4.33696 13.5 3.70107 13.1839 3.23223 12.6213C2.76339 12.0587 2.5 11.2956 2.5 10.5C2.5 9.70435 2.76339 8.94129 3.23223 8.37868C3.70107 7.81607 4.33696 7.5 5 7.5H11.25C11.5815 7.5 11.8995 7.65804 12.1339 7.93934C12.3683 8.22064 12.5 8.60218 12.5 9C12.5 9.39782 12.6317 9.77936 12.8661 10.0607C13.1005 10.342 13.4185 10.5 13.75 10.5C14.0815 10.5 14.3995 10.342 14.6339 10.0607C14.8683 9.77936 15 9.39782 15 9C15 7.80653 14.6049 6.66193 13.9017 5.81802C13.1984 4.97411 12.2446 4.5 11.25 4.5H8.75V1.5C8.75 1.10218 8.6183 0.720644 8.38388 0.43934C8.14946 0.158035 7.83152 0 7.5 0C7.16848 0 6.85054 0.158035 6.61612 0.43934C6.3817 0.720644 6.25 1.10218 6.25 1.5V4.5H5C3.67392 4.5 2.40215 5.13214 1.46447 6.25736C0.526784 7.38258 0 8.9087 0 10.5C0 12.0913 0.526784 13.6174 1.46447 14.7426C2.40215 15.8679 3.67392 16.5 5 16.5H10C10.663 16.5 11.2989 16.8161 11.7678 17.3787C12.2366 17.9413 12.5 18.7044 12.5 19.5C12.5 20.2956 12.2366 21.0587 11.7678 21.6213C11.2989 22.1839 10.663 22.5 10 22.5H3.75C3.41848 22.5 3.10054 22.342 2.86612 22.0607C2.6317 21.7794 2.5 21.3978 2.5 21C2.5 20.6022 2.3683 20.2206 2.13388 19.9393C1.89946 19.658 1.58152 19.5 1.25 19.5C0.918479 19.5 0.600537 19.658 0.366117 19.9393C0.131696 20.2206 0 20.6022 0 21C0 22.1935 0.395088 23.3381 1.09835 24.182C1.80161 25.0259 2.75544 25.5 3.75 25.5H6.25V28.5C6.25 28.8978 6.3817 29.2794 6.61612 29.5607C6.85054 29.842 7.16848 30 7.5 30C7.83152 30 8.14946 29.842 8.38388 29.5607C8.6183 29.2794 8.75 28.8978 8.75 28.5V25.5H10C11.3261 25.5 12.5979 24.8679 13.5355 23.7426C14.4732 22.6174 15 21.0913 15 19.5C15 17.9087 14.4732 16.3826 13.5355 15.2574C12.5979 14.1321 11.3261 13.5 10 13.5Z" fill="#EDF1F7"/>
</svg>
