<svg width="30" height="30" viewBox="0 0 30 30" fill="none" xmlns="http://www.w3.org/2000/svg">
<path d="M29.4999 20.3631L22.7342 13.5994C22.8758 12.9086 22.946 12.205 22.9437 11.4998C22.9432 9.56609 22.4562 7.66376 21.5276 5.96861C20.5991 4.27345 19.259 2.84018 17.6313 1.80127C16.0035 0.762363 14.1406 0.151346 12.2148 0.0247005C10.289 -0.101945 8.36239 0.259867 6.61308 1.07669C6.39145 1.17813 6.19789 1.33224 6.0492 1.52565C5.90052 1.71905 5.8012 1.9459 5.75988 2.18649C5.71872 2.42402 5.73532 2.668 5.80828 2.89774C5.88124 3.12748 6.0084 3.33621 6.179 3.50624L12.6903 10.015L9.99596 12.7145L3.49963 6.19074C3.3285 6.02248 3.11952 5.89787 2.89029 5.8274C2.66106 5.75693 2.41829 5.74267 2.18241 5.78582C1.94378 5.8257 1.71836 5.92294 1.52545 6.06921C1.33254 6.21547 1.17789 6.40641 1.07474 6.62566C0.256747 8.38409 -0.104059 10.3212 0.0258833 12.2569C0.155825 14.1926 0.772294 16.0639 1.81794 17.6967C2.86359 19.3296 4.30445 20.6709 6.00647 21.596C7.7085 22.521 9.6164 22.9998 11.5527 22.9876C12.2566 22.9899 12.9588 22.9195 13.6483 22.7776L20.3991 29.5564C20.5382 29.6969 20.7038 29.8085 20.8862 29.8847C21.0686 29.9608 21.2642 30 21.4618 30C21.6594 30 21.8551 29.9608 22.0375 29.8847C22.2199 29.8085 22.3854 29.6969 22.5246 29.5564C22.6649 29.417 22.7763 29.2511 22.8522 29.0683C22.9282 28.8856 22.9674 28.6896 22.9674 28.4916C22.9674 28.2936 22.9282 28.0976 22.8522 27.9148C22.7763 27.7321 22.6649 27.5662 22.5246 27.4268L15.19 20.0782C15.0067 19.8957 14.7795 19.7639 14.5303 19.6956C14.2811 19.6273 14.0185 19.6247 13.768 19.6882C13.0453 19.8821 12.3009 19.9829 11.5527 19.9882C10.4331 19.9981 9.32266 19.7859 8.28527 19.3639C7.24789 18.942 6.30409 18.3185 5.50824 17.5295C4.71239 16.7405 4.08022 15.8015 3.64815 14.7667C3.21608 13.7318 2.99264 12.6215 2.99071 11.4998C2.98877 10.9974 3.02882 10.4957 3.11045 10L8.97811 15.8939C9.11726 16.0345 9.28281 16.1461 9.46521 16.2222C9.64762 16.2983 9.84327 16.3375 10.0409 16.3375C10.2385 16.3375 10.4341 16.2983 10.6165 16.2222C10.7989 16.1461 10.9645 16.0345 11.1036 15.8939L15.8636 11.0798C16.1334 10.8002 16.2842 10.4265 16.2842 10.0375C16.2842 9.64859 16.1334 9.27487 15.8636 8.99522L10.0409 3.11631C10.5357 3.03535 11.0363 2.99522 11.5377 2.99634C13.7861 3.00031 15.9409 3.89796 17.5294 5.49223C19.1178 7.08649 20.0099 9.2471 20.0099 11.4998C20.0047 12.2494 19.9041 12.9952 19.7105 13.7193C19.6472 13.9703 19.6497 14.2334 19.7179 14.483C19.7861 14.7327 19.9176 14.9604 20.0997 15.1441L27.4343 22.4927C27.7161 22.7751 28.0984 22.9338 28.497 22.9338C28.8956 22.9338 29.2779 22.7751 29.5598 22.4927C29.8417 22.2103 30 21.8273 30 21.4279C30 21.0285 29.8417 20.6455 29.5598 20.3631H29.4999Z" fill="#EDF1F7"/>
</svg>
