<svg width="30" height="30" viewBox="0 0 30 30" fill="none" xmlns="http://www.w3.org/2000/svg">
<path d="M29.6751 2.43C29.8493 2.21048 29.9585 1.94659 29.9903 1.66822C30.0221 1.38985 29.9753 1.10814 29.8552 0.855C29.7336 0.599742 29.5423 0.384041 29.3033 0.232765C29.0644 0.0814898 28.7875 0.000800352 28.5047 0H1.49528C1.21245 0.000800352 0.935611 0.0814898 0.696671 0.232765C0.457732 0.384041 0.266426 0.599742 0.14481 0.855C0.0246832 1.10814 -0.0221193 1.38985 0.00970521 1.66822C0.0415297 1.94659 0.150709 2.21048 0.324873 2.43L13.4995 18.9V27H4.87146C4.4735 27 4.09183 27.158 3.81043 27.4393C3.52903 27.7206 3.37094 28.1022 3.37094 28.5C3.37094 28.8978 3.52903 29.2794 3.81043 29.5607C4.09183 29.842 4.4735 30 4.87146 30H25.1285C25.5265 30 25.9082 29.842 26.1896 29.5607C26.471 29.2794 26.6291 28.8978 26.6291 28.5C26.6291 28.1022 26.471 27.7206 26.1896 27.4393C25.9082 27.158 25.5265 27 25.1285 27H16.5005V18.9L29.6751 2.43ZM4.61637 3H25.3836L21.7824 7.5H8.27765L4.61637 3ZM15 15.975L10.6185 10.5H19.3815L15 15.975Z" fill="#EDF1F7"/>
</svg>
