<svg width="30" height="30" viewBox="0 0 30 30" fill="none" xmlns="http://www.w3.org/2000/svg">
<path d="M25.5 21C24.61 21 23.7399 21.2639 22.9999 21.7584C22.2599 22.2528 21.6831 22.9557 21.3425 23.7779C21.0019 24.6002 20.9128 25.505 21.0865 26.3779C21.2601 27.2508 21.6887 28.0526 22.318 28.682C22.9473 29.3113 23.7492 29.7399 24.6221 29.9135C25.495 30.0872 26.3998 29.9981 27.2221 29.6575C28.0443 29.3169 28.7471 28.7401 29.2416 28.0001C29.7361 27.26 30 26.39 30 25.5C30 24.3065 29.5259 23.1619 28.682 22.318C27.8381 21.4741 26.6935 21 25.5 21ZM25.5 27C25.2033 27 24.9133 26.912 24.6666 26.7472C24.42 26.5824 24.2277 26.3481 24.1142 26.074C24.0006 25.7999 23.9709 25.4983 24.0288 25.2074C24.0867 24.9164 24.2295 24.6491 24.4393 24.4393C24.6491 24.2296 24.9164 24.0867 25.2074 24.0288C25.4983 23.9709 25.7999 24.0006 26.074 24.1142C26.3481 24.2277 26.5824 24.42 26.7472 24.6666C26.912 24.9133 27 25.2033 27 25.5C27 25.8978 26.842 26.2794 26.5606 26.5607C26.2793 26.842 25.8978 27 25.5 27ZM10.5 21C9.60998 21 8.73995 21.2639 7.99993 21.7584C7.25991 22.2528 6.68313 22.9557 6.34254 23.7779C6.00195 24.6002 5.91283 25.505 6.08646 26.3779C6.2601 27.2508 6.68868 28.0526 7.31802 28.682C7.94735 29.3113 8.74918 29.7399 9.62209 29.9135C10.495 30.0872 11.3998 29.9981 12.2221 29.6575C13.0443 29.3169 13.7471 28.7401 14.2416 28.0001C14.7361 27.26 15 26.39 15 25.5C15 24.3065 14.5259 23.1619 13.682 22.318C12.8381 21.4741 11.6935 21 10.5 21ZM10.5 27C10.2033 27 9.91331 26.912 9.66664 26.7472C9.41997 26.5824 9.22771 26.3481 9.11418 26.074C9.00065 25.7999 8.97094 25.4983 9.02882 25.2074C9.0867 24.9164 9.22956 24.6491 9.43934 24.4393C9.64911 24.2296 9.91639 24.0867 10.2074 24.0288C10.4983 23.9709 10.7999 24.0006 11.074 24.1142C11.3481 24.2277 11.5824 24.42 11.7472 24.6666C11.912 24.9133 12 25.2033 12 25.5C12 25.8978 11.842 26.2794 11.5607 26.5607C11.2794 26.842 10.8978 27 10.5 27ZM30 9.75C29.996 7.16536 28.9675 4.68771 27.1399 2.86009C25.3123 1.03247 22.8346 0.00396722 20.25 0H19.5C19.1022 0 18.7206 0.158035 18.4393 0.43934C18.158 0.720644 18 1.10218 18 1.5V9H8.28L6.405 3.975C6.29773 3.6879 6.10509 3.44055 5.853 3.26623C5.60092 3.09192 5.30148 2.999 4.995 3H1.5C1.10217 3 0.720644 3.15804 0.43934 3.43934C0.158035 3.72064 0 4.10217 0 4.5C0 4.89782 0.158035 5.27936 0.43934 5.56066C0.720644 5.84196 1.10217 6 1.5 6H3.96L5.835 11.055L6.6 13.11V13.245C7.2988 15.1007 8.55172 16.6963 10.1887 17.8153C11.8256 18.9344 13.7673 19.5225 15.75 19.5H20.25C21.5309 19.502 22.7997 19.2511 23.9835 18.7618C25.1673 18.2726 26.2429 17.5545 27.1487 16.6487C28.0544 15.7429 28.7726 14.6673 29.2618 13.4835C29.7511 12.2997 30.002 11.0309 30 9.75ZM25.02 14.52C24.3953 15.149 23.652 15.6478 22.8333 15.9877C22.0145 16.3276 21.1365 16.5017 20.25 16.5H15.75C14.4092 16.5041 13.0979 16.1061 11.9856 15.3574C10.8732 14.6087 10.0109 13.5437 9.51 12.3C9.50349 12.2704 9.50349 12.2396 9.51 12.21L9.39 12H26.61C26.2829 12.9521 25.7385 13.8149 25.02 14.52ZM21 9V3C22.5365 3.16026 23.9713 3.8439 25.0637 4.9363C26.1561 6.0287 26.8397 7.46345 27 9H21Z" fill="#EDF1F7"/>
</svg>
