<svg width="30" height="30" viewBox="0 0 30 30" fill="none" xmlns="http://www.w3.org/2000/svg">
<path d="M10.5 23.3333H16.5C18.4891 23.3333 20.3968 22.4554 21.8033 20.8926C23.2098 19.3298 24 17.2101 24 15V13.3333H25.5C26.6935 13.3333 27.8381 12.8065 28.682 11.8689C29.5259 10.9312 30 9.65942 30 8.33333C30 7.00725 29.5259 5.73548 28.682 4.7978C27.8381 3.86012 26.6935 3.33333 25.5 3.33333H24V1.66667C24 1.22464 23.842 0.800716 23.5607 0.488155C23.2794 0.175595 22.8978 0 22.5 0H4.5C4.10218 0 3.72064 0.175595 3.43934 0.488155C3.15804 0.800716 3 1.22464 3 1.66667V15C3 17.2101 3.79018 19.3298 5.1967 20.8926C6.60322 22.4554 8.51088 23.3333 10.5 23.3333ZM24 6.66667H25.5C25.8978 6.66667 26.2794 6.84226 26.5607 7.15482C26.842 7.46738 27 7.89131 27 8.33333C27 8.77536 26.842 9.19928 26.5607 9.51184C26.2794 9.8244 25.8978 10 25.5 10H24V6.66667ZM6 3.33333H21V15C21 16.3261 20.5259 17.5979 19.682 18.5355C18.8381 19.4732 17.6935 20 16.5 20H10.5C9.30653 20 8.16193 19.4732 7.31802 18.5355C6.47411 17.5979 6 16.3261 6 15V3.33333ZM28.5 26.6667H1.5C1.10218 26.6667 0.720644 26.8423 0.43934 27.1548C0.158035 27.4674 0 27.8913 0 28.3333C0 28.7754 0.158035 29.1993 0.43934 29.5118C0.720644 29.8244 1.10218 30 1.5 30H28.5C28.8978 30 29.2794 29.8244 29.5607 29.5118C29.842 29.1993 30 28.7754 30 28.3333C30 27.8913 29.842 27.4674 29.5607 27.1548C29.2794 26.8423 28.8978 26.6667 28.5 26.6667Z" fill="#EDF1F7"/>
</svg>
