<svg width="30" height="30" viewBox="0 0 30 30" fill="none" xmlns="http://www.w3.org/2000/svg">
<path d="M28.7358 21.5063L26.1564 18.9267C25.9306 18.7172 25.7758 18.4424 25.7138 18.1406C25.6518 17.8389 25.6855 17.5253 25.8104 17.2437C26.3589 16.0657 26.6485 14.7838 26.6597 13.4844C26.667 13.4323 26.667 13.3793 26.6597 13.3271C26.6651 11.445 26.0822 9.6082 24.9925 8.07362C22.8866 5.13034 20.0956 2.74418 16.8609 1.12136C14.809 0.11684 12.4954 -0.224474 10.2409 0.144723C7.98635 0.51392 5.90249 1.57534 4.27813 3.18187L3.22433 4.23572C1.60097 5.86631 0.529221 7.96453 0.159659 10.2356C-0.209903 12.5067 0.141292 14.8365 1.1639 16.8977L1.32119 17.165C0.481819 18.0359 0.00887178 19.1958 0 20.4052C0.00624491 21.2399 0.233736 22.0579 0.659271 22.7759C1.08481 23.4939 1.69316 24.0861 2.42227 24.4923C3.15139 24.8984 3.97518 25.1039 4.80962 25.0878C5.64406 25.0716 6.45929 24.8345 7.17216 24.4004C7.45528 24.6206 7.70693 24.8566 7.99004 25.0611C8.58538 25.475 9.22996 25.8132 9.90891 26.0677H10.0505C10.3336 26.1778 10.6324 26.2722 10.947 26.3666H11.1829C11.6724 26.4923 12.1727 26.5713 12.6771 26.6025H13.1175H13.3063H13.6523C13.9826 26.6025 14.2971 26.6025 14.6274 26.5081H14.8948C15.6681 26.3753 16.4196 26.1372 17.1283 25.8003C17.4107 25.6866 17.72 25.6573 18.0187 25.7159C18.3174 25.7745 18.5927 25.9186 18.8112 26.1306L21.1076 28.4271C22.1039 29.427 23.4551 29.9924 24.8666 30C26.0506 29.9873 27.1815 29.5067 28.0123 28.663L28.61 28.0653C29.4776 27.2019 29.9757 26.0351 29.9991 24.8112C30.0226 23.5874 29.5696 22.4024 28.7358 21.5063ZM4.67134 22.0096C4.36026 22.0096 4.05617 21.9174 3.79752 21.7445C3.53887 21.5717 3.33727 21.326 3.21823 21.0386C3.09918 20.7512 3.06803 20.435 3.12872 20.1298C3.18941 19.8247 3.33921 19.5445 3.55918 19.3245C3.77914 19.1045 4.0594 18.9547 4.3645 18.894C4.6696 18.8333 4.98585 18.8645 5.27324 18.9835C5.56064 19.1026 5.80629 19.3042 5.97911 19.5628C6.15194 19.8215 6.24419 20.1256 6.24419 20.4367C6.24419 20.8539 6.07848 21.2539 5.78351 21.5489C5.48855 21.8439 5.08849 22.0096 4.67134 22.0096ZM9.54716 22.2298L9.13822 21.9152C9.30199 21.4394 9.387 20.94 9.38987 20.4367C9.38987 19.1852 8.89274 17.985 8.00785 17.1001C7.12295 16.2151 5.92278 15.718 4.67134 15.718C4.46687 15.718 4.27813 15.718 4.07366 15.718L3.93211 15.4663C3.20055 13.9949 2.94822 12.3313 3.21058 10.7092C3.47293 9.08704 4.23678 7.58781 5.39485 6.42207L6.44866 5.36822C7.62932 4.23658 9.13338 3.50118 10.7515 3.26437C12.3697 3.02756 14.0214 3.30112 15.4768 4.04697C18.1189 5.36855 20.4139 7.2919 22.1771 9.66226L9.54716 22.2298ZM26.5024 25.9576L25.9205 26.5553C25.2599 27.2159 24.2375 27.0901 23.3882 26.2407L21.0918 23.96C20.4156 23.2881 19.5517 22.8369 18.614 22.6656C17.6762 22.4943 16.7086 22.6111 15.8385 23.0005C15.3427 23.2435 14.8121 23.408 14.2657 23.4881C13.9651 23.5455 13.6594 23.5719 13.3534 23.5668H12.8187H12.6614L23.4668 12.7609C23.5769 13.8386 23.3921 14.926 22.9321 15.9067C22.5426 16.7768 22.4258 17.7445 22.5971 18.6823C22.7684 19.6201 23.2196 20.484 23.8915 21.1602L26.4709 23.7555C26.7634 24.0454 26.9305 24.4384 26.9363 24.8502C26.9422 25.2619 26.7864 25.6595 26.5024 25.9576Z" fill="#EDF1F7"/>
</svg>
