<svg width="30" height="30" viewBox="0 0 30 30" fill="none" xmlns="http://www.w3.org/2000/svg">
<path d="M10.5 10.7174C10.2033 10.7174 9.91332 10.8044 9.66665 10.9673C9.41998 11.1303 9.22772 11.362 9.11419 11.633C9.00065 11.904 8.97095 12.2023 9.02883 12.49C9.08671 12.7777 9.22957 13.042 9.43935 13.2495C9.64912 13.4569 9.9164 13.5982 10.2074 13.6554C10.4983 13.7127 10.7999 13.6833 11.074 13.571C11.3481 13.4587 11.5824 13.2686 11.7472 13.0247C11.912 12.7808 12 12.494 12 12.2006C12 11.8073 11.842 11.43 11.5607 11.1518C11.2794 10.8736 10.8978 10.7174 10.5 10.7174ZM19.5 10.7174C19.2033 10.7174 18.9133 10.8044 18.6666 10.9673C18.42 11.1303 18.2277 11.362 18.1142 11.633C18.0007 11.904 17.9709 12.2023 18.0288 12.49C18.0867 12.7777 18.2296 13.042 18.4393 13.2495C18.6491 13.4569 18.9164 13.5982 19.2074 13.6554C19.4983 13.7127 19.7999 13.6833 20.074 13.571C20.3481 13.4587 20.5824 13.2686 20.7472 13.0247C20.912 12.7808 21 12.494 21 12.2006C21 11.8073 20.842 11.43 20.5607 11.1518C20.2794 10.8736 19.8978 10.7174 19.5 10.7174ZM15 0.33441C12.0333 0.33441 9.13319 1.20434 6.66645 2.83419C4.19971 4.46403 2.27713 6.7806 1.14181 9.49094C0.00649926 12.2013 -0.290551 15.1837 0.288227 18.0609C0.867006 20.9382 2.29562 23.5812 4.3934 25.6556C6.49119 27.73 9.16394 29.1427 12.0737 29.715C14.9834 30.2873 17.9994 29.9936 20.7403 28.8709C23.4811 27.7483 25.8238 25.8471 27.472 23.4079C29.1203 20.9686 30 18.1008 30 15.1672C30 13.2193 29.612 11.2905 28.8582 9.49094C28.1044 7.69134 26.9995 6.05619 25.6066 4.67883C24.2137 3.30148 22.5601 2.20891 20.7403 1.46349C18.9204 0.718072 16.9698 0.33441 15 0.33441ZM15 27.0334C12.6266 27.0334 10.3066 26.3375 8.33316 25.0336C6.35977 23.7297 4.8217 21.8765 3.91345 19.7082C3.0052 17.5399 2.76756 15.154 3.23058 12.8522C3.69361 10.5504 4.83649 8.43603 6.51472 6.77651C8.19295 5.11699 10.3311 3.98684 12.6589 3.52898C14.9867 3.07111 17.3995 3.3061 19.5922 4.20423C21.7849 5.10236 23.6591 6.62328 24.9776 8.57467C26.2962 10.5261 27 12.8203 27 15.1672C27 18.3143 25.7357 21.3325 23.4853 23.5579C21.2348 25.7832 18.1826 27.0334 15 27.0334Z" fill="#EDF1F7"/>
<path d="M16.5 17.3921C16.5 17.8017 15.8284 18.1338 15 18.1338C14.1716 18.1338 13.5 17.8017 13.5 17.3921C13.5 16.9825 14.1716 16.6505 15 16.6505C15.8284 16.6505 16.5 16.9825 16.5 17.3921Z" fill="#EDF1F7"/>
<path d="M1.85781 0.189876C2.96562 -0.696295 8.50263 1.80702 8.50263 1.80702L2.66136 6.90989C2.66136 6.90989 0.75 1.07605 1.85781 0.189876Z" fill="#EDF1F7"/>
<path d="M27.785 0.248467C29.25 1.07606 27.114 6.98268 27.114 6.98268L21.1733 1.99333C21.1733 1.99333 26.32 -0.579125 27.785 0.248467Z" fill="#EDF1F7"/>
</svg>
