<svg width="30" height="30" viewBox="0 0 30 30" fill="none" xmlns="http://www.w3.org/2000/svg">
<path d="M18.0358 13.3099H16.5343V11.6098C16.5343 11.159 16.3761 10.7265 16.0945 10.4077C15.813 10.0889 15.431 9.90977 15.0328 9.90977C14.6346 9.90977 14.2527 10.0889 13.9711 10.4077C13.6895 10.7265 13.5313 11.159 13.5313 11.6098V13.3099H12.0299C11.6316 13.3099 11.2497 13.489 10.9682 13.8078C10.6866 14.1267 10.5284 14.5591 10.5284 15.01C10.5284 15.4608 10.6866 15.8933 10.9682 16.2121C11.2497 16.5309 11.6316 16.71 12.0299 16.71H13.5313V18.4101C13.5313 18.861 13.6895 19.2934 13.9711 19.6122C14.2527 19.931 14.6346 20.1101 15.0328 20.1101C15.431 20.1101 15.813 19.931 16.0945 19.6122C16.3761 19.2934 16.5343 18.861 16.5343 18.4101V16.71H18.0358C18.434 16.71 18.8159 16.5309 19.0975 16.2121C19.3791 15.8933 19.5373 15.4608 19.5373 15.01C19.5373 14.5591 19.3791 14.1267 19.0975 13.8078C18.8159 13.489 18.434 13.3099 18.0358 13.3099ZM27.2849 3.10953C25.6839 1.31546 23.5693 0.22839 21.3226 0.0444626C19.0759 -0.139465 16.8451 0.591867 15.0328 2.1065C13.1224 0.497623 10.7446 -0.231917 8.37814 0.0647877C6.0117 0.361493 3.83243 1.6624 2.2792 3.70555C0.725968 5.74869 -0.0858598 8.38231 0.00720021 11.076C0.10026 13.7698 1.0913 16.3235 2.78074 18.2231L11.7896 28.5084C12.6342 29.4635 13.7791 30 14.9728 30C16.1664 30 17.3113 29.4635 18.1559 28.5084L27.1648 18.2231C28.0521 17.2415 28.7593 16.0711 29.2458 14.7791C29.7323 13.4872 29.9885 12.099 29.9996 10.6946C30.0108 9.29011 29.7767 7.897 29.3108 6.5953C28.8449 5.2936 28.1564 4.10899 27.2849 3.10953ZM25.1678 15.792L16.1589 25.9923C16.0194 26.1517 15.8533 26.2782 15.6703 26.3645C15.4874 26.4508 15.2911 26.4952 15.0929 26.4952C14.8947 26.4952 14.6984 26.4508 14.5155 26.3645C14.3325 26.2782 14.1664 26.1517 14.0268 25.9923L5.01794 15.792C3.84042 14.4291 3.18105 12.5984 3.18105 10.6918C3.18105 8.78524 3.84042 6.95448 5.01794 5.59162C6.21786 4.25025 7.83618 3.49811 9.52239 3.49811C11.2086 3.49811 12.8269 4.25025 14.0268 5.59162C14.1664 5.75096 14.3325 5.87744 14.5155 5.96375C14.6984 6.05006 14.8947 6.0945 15.0929 6.0945C15.2911 6.0945 15.4874 6.05006 15.6703 5.96375C15.8533 5.87744 16.0194 5.75096 16.1589 5.59162C17.3589 4.25025 18.9772 3.49811 20.6634 3.49811C22.3496 3.49811 23.9679 4.25025 25.1678 5.59162C26.3544 6.956 27.0195 8.794 27.0195 10.7088C27.0195 12.6236 26.3544 14.4616 25.1678 15.826V15.792Z" fill="#EDF1F7"/>
</svg>
