<svg width="30" height="30" viewBox="0 0 30 30" fill="none" xmlns="http://www.w3.org/2000/svg">
<path d="M9.11298 10.0288L9.10923 10.0313L9.10566 10.0341L9.11298 10.0288ZM25.7031 9.77587C25.5872 9.68493 25.4585 9.60536 25.3198 9.53879C25.1234 9.44475 24.9055 9.38448 24.6793 9.36172C24.4532 9.33895 24.2238 9.35417 24.0052 9.40643C23.7866 9.4587 23.5835 9.54689 23.4084 9.66556C23.2334 9.78423 23.0901 9.93086 22.9874 10.0964C22.4133 11.0168 21.6215 11.836 20.6574 12.5069C20.8049 11.8309 20.8792 11.1458 20.8796 10.4593C20.8827 8.37082 20.2057 6.31901 18.9174 4.51273C17.6291 2.70645 15.7756 1.21023 13.5457 0.176399C13.3 0.0630828 13.023 0.00240887 12.7406 7.02643e-05C12.4583 -0.00226834 12.1798 0.053805 11.9314 0.163029C11.6829 0.272253 11.4727 0.431046 11.3203 0.624509C11.1679 0.817971 11.0785 1.03976 11.0603 1.26907C10.967 2.555 10.5539 3.81214 9.84596 4.96432C9.13801 6.11649 8.14997 7.13972 6.9417 7.972L6.55759 8.22629C5.29411 8.91808 4.17575 9.77089 3.24543 10.752C1.79929 12.2345 0.797508 13.9708 0.319528 15.8231C-0.158451 17.6755 -0.0994819 19.593 0.491759 21.4236C1.083 23.2542 2.19025 24.9476 3.7257 26.3694C5.26116 27.7911 7.18258 28.9022 9.3376 29.6146C9.59062 29.6987 9.86521 29.7309 10.1371 29.7083C10.409 29.6856 10.6699 29.6089 10.8968 29.4848C11.1237 29.3608 11.3095 29.1932 11.438 28.9968C11.5664 28.8005 11.6335 28.5814 11.6334 28.359C11.6322 28.2152 11.6042 28.0723 11.5504 27.9352C11.1775 26.7947 11.0701 25.6074 11.2338 24.4347C12.8108 26.8552 15.3423 28.7738 18.4213 29.8821C18.7971 30.0189 19.2219 30.0373 19.6135 29.9338C22.0461 29.2949 24.2375 28.1604 25.9795 26.6382C27.7216 25.116 28.9564 23.2566 29.5666 21.2367C30.1768 19.2168 30.1421 17.1035 29.4659 15.0976C28.7897 13.0916 27.4944 11.2597 25.7031 9.77587ZM19.1952 27.1776C17.7424 26.5785 16.4608 25.7372 15.4338 24.7086C14.4067 23.6799 13.6573 22.4869 13.2341 21.2071C13.1048 20.7761 13.0048 20.3397 12.9346 19.8999C12.887 19.6197 12.733 19.3587 12.4941 19.1533C12.2553 18.9479 11.9435 18.8084 11.6024 18.7542C11.4973 18.7374 11.3905 18.7289 11.2834 18.7291C10.9904 18.729 10.7027 18.7917 10.449 18.911C10.1954 19.0303 9.98497 19.2019 9.83886 19.4085C8.45598 21.3494 7.76053 23.564 7.82958 25.8069C6.61332 25.0374 5.59684 24.0791 4.83905 22.9875C4.08126 21.896 3.59724 20.6929 3.41504 19.4481C3.23284 18.2032 3.35609 16.9413 3.77763 15.7355C4.19917 14.5296 4.91063 13.4039 5.87077 12.4235C6.59979 11.6529 7.47925 10.9849 8.4741 10.4461C8.51717 10.4235 8.55849 10.3987 8.5978 10.3719C8.5978 10.3719 9.09228 10.039 9.10918 10.0314C11.4837 8.39707 13.1725 6.20074 13.9404 3.74841C15.7563 5.11444 16.9672 6.93015 17.385 8.91359C17.8028 10.897 17.404 12.9372 16.2508 14.7174C16.0984 14.9549 16.0359 15.2239 16.0711 15.4903C16.1064 15.7567 16.2378 16.0086 16.4488 16.2144C16.6598 16.4201 16.941 16.5703 17.2568 16.6462C17.5726 16.722 17.909 16.72 18.2234 16.6405C20.7764 15.9893 23.0229 14.7173 24.6606 12.9957C25.6448 14.1787 26.2883 15.5272 26.5431 16.9407C26.7978 18.3542 26.6573 19.7963 26.132 21.1595C25.6066 22.5227 24.71 23.7718 23.5089 24.8138C22.3079 25.8558 20.8333 26.6638 19.1951 27.1777L19.1952 27.1776Z" fill="#EDF1F7"/>
</svg>
