<svg width="30" height="20" viewBox="0 0 30 20" fill="none" xmlns="http://www.w3.org/2000/svg">
<path d="M7.5 13.3333H12C12.3978 13.3333 12.7794 13.1929 13.0607 12.9428C13.342 12.6928 13.5 12.3536 13.5 12C13.5 11.6464 13.342 11.3072 13.0607 11.0572C12.7794 10.8071 12.3978 10.6667 12 10.6667H7.5C7.10218 10.6667 6.72064 10.8071 6.43934 11.0572C6.15804 11.3072 6 11.6464 6 12C6 12.3536 6.15804 12.6928 6.43934 12.9428C6.72064 13.1929 7.10218 13.3333 7.5 13.3333ZM25.5 0H4.5C3.30653 0 2.16193 0.421427 1.31802 1.17157C0.474106 1.92172 0 2.93913 0 4V16C0 17.0609 0.474106 18.0783 1.31802 18.8284C2.16193 19.5786 3.30653 20 4.5 20H25.5C26.6935 20 27.8381 19.5786 28.682 18.8284C29.5259 18.0783 30 17.0609 30 16V4C30 2.93913 29.5259 1.92172 28.682 1.17157C27.8381 0.421427 26.6935 0 25.5 0ZM27 16C27 16.3536 26.842 16.6928 26.5607 16.9428C26.2794 17.1929 25.8978 17.3333 25.5 17.3333H4.5C4.10218 17.3333 3.72064 17.1929 3.43934 16.9428C3.15804 16.6928 3 16.3536 3 16V8H27V16ZM27 5.33333H3V4C3 3.64638 3.15804 3.30724 3.43934 3.05719C3.72064 2.80714 4.10218 2.66667 4.5 2.66667H25.5C25.8978 2.66667 26.2794 2.80714 26.5607 3.05719C26.842 3.30724 27 3.64638 27 4V5.33333Z" fill="#EDF1F7"/>
</svg>
