<svg width="30" height="30" viewBox="0 0 30 30" fill="none" xmlns="http://www.w3.org/2000/svg">
<path d="M18 9H19.5C19.8978 9 20.2794 8.84196 20.5607 8.56066C20.842 8.27936 21 7.89782 21 7.5C21 7.10218 20.842 6.72064 20.5607 6.43934C20.2794 6.15804 19.8978 6 19.5 6H18C17.6022 6 17.2206 6.15804 16.9393 6.43934C16.658 6.72064 16.5 7.10218 16.5 7.5C16.5 7.89782 16.658 8.27936 16.9393 8.56066C17.2206 8.84196 17.6022 9 18 9ZM18 15H19.5C19.8978 15 20.2794 14.842 20.5607 14.5607C20.842 14.2794 21 13.8978 21 13.5C21 13.1022 20.842 12.7206 20.5607 12.4393C20.2794 12.158 19.8978 12 19.5 12H18C17.6022 12 17.2206 12.158 16.9393 12.4393C16.658 12.7206 16.5 13.1022 16.5 13.5C16.5 13.8978 16.658 14.2794 16.9393 14.5607C17.2206 14.842 17.6022 15 18 15ZM10.5 9H12C12.3978 9 12.7794 8.84196 13.0607 8.56066C13.342 8.27936 13.5 7.89782 13.5 7.5C13.5 7.10218 13.342 6.72064 13.0607 6.43934C12.7794 6.15804 12.3978 6 12 6H10.5C10.1022 6 9.72064 6.15804 9.43934 6.43934C9.15804 6.72064 9 7.10218 9 7.5C9 7.89782 9.15804 8.27936 9.43934 8.56066C9.72064 8.84196 10.1022 9 10.5 9ZM10.5 15H12C12.3978 15 12.7794 14.842 13.0607 14.5607C13.342 14.2794 13.5 13.8978 13.5 13.5C13.5 13.1022 13.342 12.7206 13.0607 12.4393C12.7794 12.158 12.3978 12 12 12H10.5C10.1022 12 9.72064 12.158 9.43934 12.4393C9.15804 12.7206 9 13.1022 9 13.5C9 13.8978 9.15804 14.2794 9.43934 14.5607C9.72064 14.842 10.1022 15 10.5 15ZM28.5 27H27V1.5C27 1.10218 26.842 0.720644 26.5607 0.43934C26.2794 0.158035 25.8978 0 25.5 0H4.5C4.10218 0 3.72064 0.158035 3.43934 0.43934C3.15804 0.720644 3 1.10218 3 1.5V27H1.5C1.10218 27 0.720644 27.158 0.43934 27.4393C0.158035 27.7206 0 28.1022 0 28.5C0 28.8978 0.158035 29.2794 0.43934 29.5607C0.720644 29.842 1.10218 30 1.5 30H28.5C28.8978 30 29.2794 29.842 29.5607 29.5607C29.842 29.2794 30 28.8978 30 28.5C30 28.1022 29.842 27.7206 29.5607 27.4393C29.2794 27.158 28.8978 27 28.5 27ZM16.5 27H13.5V21H16.5V27ZM24 27H19.5V19.5C19.5 19.1022 19.342 18.7206 19.0607 18.4393C18.7794 18.158 18.3978 18 18 18H12C11.6022 18 11.2206 18.158 10.9393 18.4393C10.658 18.7206 10.5 19.1022 10.5 19.5V27H6V3H24V27Z" fill="#EDF1F7"/>
</svg>
