<svg width="26" height="24" viewBox="0 0 26 24" fill="none" xmlns="http://www.w3.org/2000/svg">
<path d="M21.75 5.75H20.5V4.5C20.5 3.50544 20.1049 2.55161 19.4017 1.84835C18.6984 1.14509 17.7446 0.75 16.75 0.75H4.25C3.25544 0.75 2.30161 1.14509 1.59835 1.84835C0.895088 2.55161 0.5 3.50544 0.5 4.5V19.5C0.5 20.4946 0.895088 21.4484 1.59835 22.1517C2.30161 22.8549 3.25544 23.25 4.25 23.25H21.75C22.7446 23.25 23.6984 22.8549 24.4017 22.1517C25.1049 21.4484 25.5 20.4946 25.5 19.5V9.5C25.5 8.50544 25.1049 7.55161 24.4017 6.84835C23.6984 6.14509 22.7446 5.75 21.75 5.75ZM4.25 3.25H16.75C17.0815 3.25 17.3995 3.3817 17.6339 3.61612C17.8683 3.85054 18 4.16848 18 4.5V5.75H4.25C3.91848 5.75 3.60054 5.6183 3.36612 5.38388C3.1317 5.14946 3 4.83152 3 4.5C3 4.16848 3.1317 3.85054 3.36612 3.61612C3.60054 3.3817 3.91848 3.25 4.25 3.25ZM23 15.75H21.75C21.4185 15.75 21.1005 15.6183 20.8661 15.3839C20.6317 15.1495 20.5 14.8315 20.5 14.5C20.5 14.1685 20.6317 13.8505 20.8661 13.6161C21.1005 13.3817 21.4185 13.25 21.75 13.25H23V15.75ZM23 10.75H21.75C20.7554 10.75 19.8016 11.1451 19.0983 11.8483C18.3951 12.5516 18 13.5054 18 14.5C18 15.4946 18.3951 16.4484 19.0983 17.1517C19.8016 17.8549 20.7554 18.25 21.75 18.25H23V19.5C23 19.8315 22.8683 20.1495 22.6339 20.3839C22.3995 20.6183 22.0815 20.75 21.75 20.75H4.25C3.91848 20.75 3.60054 20.6183 3.36612 20.3839C3.1317 20.1495 3 19.8315 3 19.5V8.0375C3.40158 8.17877 3.82429 8.25063 4.25 8.25H21.75C22.0815 8.25 22.3995 8.3817 22.6339 8.61612C22.8683 8.85054 23 9.16848 23 9.5V10.75Z" fill="#EDF1F7"/>
</svg>
