<svg width="30" height="30" viewBox="0 0 30 30" fill="none" xmlns="http://www.w3.org/2000/svg">
<path d="M29.9999 4.62518C30.0012 3.71074 29.7309 2.8165 29.2234 2.05577C28.7158 1.29504 27.9939 0.702057 27.1489 0.351945C26.304 0.00183376 25.3741 -0.0896451 24.4771 0.0890993C23.5801 0.267844 22.7564 0.708767 22.1103 1.356L17.8954 5.56994L8.16085 2.33076C7.90167 2.24931 7.62523 2.23978 7.36106 2.30317C7.09688 2.36656 6.85489 2.50049 6.66091 2.69067L3.09106 6.22978C2.92191 6.40085 2.79641 6.6101 2.72514 6.83986C2.65388 7.06961 2.63894 7.31314 2.68159 7.54988C2.72424 7.78662 2.82323 8.00963 2.9702 8.20009C3.11718 8.39055 3.30782 8.54286 3.52604 8.64417L11.2957 12.1683L7.39588 16.0673L4.83099 14.7776C4.55406 14.6278 4.23698 14.5689 3.9247 14.6092C3.61241 14.6496 3.32076 14.7872 3.09106 15.0026L0.436171 17.7169C0.156806 17.9979 0 18.3779 0 18.7741C0 19.1703 0.156806 19.5504 0.436171 19.8314L10.1708 29.5639C10.4518 29.8432 10.832 30 11.2282 30C11.6245 30 12.0046 29.8432 12.2857 29.5639L15.0006 26.9096C15.2257 26.6868 15.3745 26.3986 15.4257 26.0861C15.4769 25.7736 15.4278 25.4529 15.2855 25.17L13.9956 22.6057L17.8954 18.7066L21.4203 26.4747C21.5216 26.6929 21.674 26.8835 21.8645 27.0304C22.055 27.1774 22.278 27.2763 22.5148 27.319C22.7516 27.3616 22.9952 27.3467 23.225 27.2754C23.4548 27.2042 23.6641 27.0787 23.8352 26.9096L27.375 23.3705C27.5653 23.1765 27.6992 22.9346 27.7626 22.6705C27.826 22.4064 27.8165 22.13 27.735 21.8709L24.4952 12.1383L28.65 7.89436C29.0808 7.46632 29.422 6.95679 29.6538 6.39551C29.8856 5.83422 30.0032 5.23241 29.9999 4.62518ZM26.5201 5.77989L21.6603 10.6387C21.4701 10.8326 21.3361 11.0746 21.2727 11.3387C21.2093 11.6028 21.2188 11.8792 21.3003 12.1383L24.5402 21.8559L23.1902 23.2055L19.6654 15.4525C19.5653 15.2323 19.4135 15.0395 19.2228 14.8907C19.0322 14.7419 18.8083 14.6413 18.5704 14.5977C18.3305 14.5539 18.0836 14.5693 17.851 14.6424C17.6183 14.7156 17.4071 14.8444 17.2355 15.0176L11.0557 21.256C10.8339 21.4776 10.687 21.7631 10.6359 22.0725C10.5848 22.3818 10.632 22.6994 10.7707 22.9806L12.0007 25.4999L11.1607 26.3397L3.61604 18.7816L4.501 18.0018L7.06589 19.2915C7.34712 19.4302 7.66476 19.4774 7.97417 19.4263C8.28358 19.3752 8.56918 19.2284 8.79082 19.0066L15.0006 12.7681C15.1729 12.5972 15.3012 12.3869 15.3743 12.1555C15.4475 11.924 15.4634 11.6783 15.4206 11.4393C15.3778 11.2004 15.2776 10.9754 15.1287 10.7837C14.9798 10.592 14.7865 10.4393 14.5656 10.3387L6.75091 6.81463L8.10085 5.46497L17.8204 8.70416C18.0796 8.7856 18.3561 8.79514 18.6202 8.73175C18.8844 8.66836 19.1264 8.53442 19.3204 8.34425L24.1802 3.48547C24.3296 3.33266 24.5081 3.21124 24.7052 3.12835C24.9022 3.04546 25.1139 3.00276 25.3276 3.00276C25.5414 3.00276 25.753 3.04546 25.9501 3.12835C26.1471 3.21124 26.3256 3.33266 26.4751 3.48547C26.6315 3.6304 26.7553 3.80702 26.838 4.00356C26.9208 4.20009 26.9607 4.41201 26.9551 4.62518C26.9632 4.83692 26.9289 5.04815 26.8542 5.24645C26.7795 5.44475 26.6659 5.62612 26.5201 5.77989Z" fill="#EDF1F7"/>
</svg>
