<svg width="30" height="30" viewBox="0 0 30 30" fill="none" xmlns="http://www.w3.org/2000/svg">
<path d="M25 15.225V1.5C25 1.10218 24.8244 0.720644 24.5118 0.43934C24.1993 0.158035 23.7754 0 23.3333 0C22.8913 0 22.4674 0.158035 22.1548 0.43934C21.8423 0.720644 21.6667 1.10218 21.6667 1.5V15.225C20.2233 15.6022 18.9551 16.3913 18.0533 17.4735C17.1515 18.5557 16.6649 19.8723 16.6667 21.225C16.6667 24.3 19.2 29.925 23.3333 29.925C27.4667 29.925 30 24.3 30 21.225C30.0018 19.8723 29.5151 18.5557 28.6133 17.4735C27.7115 16.3913 26.4434 15.6022 25 15.225ZM23.3333 27C22 27 20 23.595 20 21.3C19.9592 20.4654 20.2867 19.65 20.9111 19.0318C21.5356 18.4137 22.4063 18.0427 23.3333 18C24.2604 18.0427 25.1311 18.4137 25.7555 19.0318C26.3799 19.65 26.7075 20.4654 26.6667 21.3C26.6667 23.595 24.6667 27 23.3333 27ZM11.6667 0C11.2246 0 10.8007 0.158035 10.4882 0.43934C10.1756 0.720644 10 1.10218 10 1.5V9.69L8.33333 10.695V1.5C8.33333 1.10218 8.15774 0.720644 7.84518 0.43934C7.53262 0.158035 7.10869 0 6.66667 0C6.22464 0 5.80071 0.158035 5.48815 0.43934C5.17559 0.720644 5 1.10218 5 1.5V10.695L3.33333 9.69V1.5C3.33333 1.10218 3.15774 0.720644 2.84518 0.43934C2.53262 0.158035 2.10869 0 1.66667 0C1.22464 0 0.800716 0.158035 0.488155 0.43934C0.175595 0.720644 0 1.10218 0 1.5V10.5C0.0014202 10.7471 0.0706253 10.99 0.201466 11.2072C0.332307 11.4244 0.520732 11.6091 0.75 11.745L5 14.31V28.5C5 28.8978 5.17559 29.2794 5.48815 29.5607C5.80071 29.842 6.22464 30 6.66667 30C7.10869 30 7.53262 29.842 7.84518 29.5607C8.15774 29.2794 8.33333 28.8978 8.33333 28.5V14.31L12.5833 11.745C12.8126 11.6091 13.001 11.4244 13.1319 11.2072C13.2627 10.99 13.3319 10.7471 13.3333 10.5V1.5C13.3333 1.10218 13.1577 0.720644 12.8452 0.43934C12.5326 0.158035 12.1087 0 11.6667 0Z" fill="#EDF1F7"/>
</svg>
