<svg width="30" height="30" viewBox="0 0 30 30" fill="none" xmlns="http://www.w3.org/2000/svg">
<path d="M25 0H5C3.67392 0 2.40215 0.474106 1.46447 1.31802C0.526784 2.16193 0 3.30653 0 4.5V22.5C0.00289919 23.4284 0.324798 24.3333 0.921564 25.0906C1.51833 25.8479 2.36075 26.4205 3.33333 26.73V28.5C3.33333 28.8978 3.50893 29.2794 3.82149 29.5607C4.13405 29.842 4.55797 30 5 30C5.44203 30 5.86595 29.842 6.17851 29.5607C6.49107 29.2794 6.66667 28.8978 6.66667 28.5V27H23.3333V28.5C23.3333 28.8978 23.5089 29.2794 23.8215 29.5607C24.134 29.842 24.558 30 25 30C25.442 30 25.866 29.842 26.1785 29.5607C26.4911 29.2794 26.6667 28.8978 26.6667 28.5V26.73C27.6392 26.4205 28.4817 25.8479 29.0784 25.0906C29.6752 24.3333 29.9971 23.4284 30 22.5V4.5C30 3.30653 29.4732 2.16193 28.5355 1.31802C27.5979 0.474106 26.3261 0 25 0ZM3.33333 9H13.3333V15H3.33333V9ZM26.6667 22.5C26.6667 22.8978 26.4911 23.2794 26.1785 23.5607C25.866 23.842 25.442 24 25 24H5C4.55797 24 4.13405 23.842 3.82149 23.5607C3.50893 23.2794 3.33333 22.8978 3.33333 22.5V18H26.6667V22.5ZM26.6667 15H16.6667V9H26.6667V15ZM26.6667 6H3.33333V4.5C3.33333 4.10218 3.50893 3.72064 3.82149 3.43934C4.13405 3.15804 4.55797 3 5 3H25C25.442 3 25.866 3.15804 26.1785 3.43934C26.4911 3.72064 26.6667 4.10218 26.6667 4.5V6ZM21.0333 22.38C21.2337 22.4569 21.4489 22.4976 21.6667 22.5C22.1087 22.5 22.5326 22.342 22.8452 22.0607C23.1577 21.7794 23.3333 21.3978 23.3333 21C23.3415 20.9001 23.3415 20.7999 23.3333 20.7C23.3151 20.606 23.2814 20.515 23.2333 20.43C23.1969 20.3344 23.1464 20.2436 23.0833 20.16C23.0218 20.0814 22.955 20.0063 22.8833 19.935L22.6333 19.755C22.5404 19.6982 22.4395 19.6528 22.3333 19.62C22.2306 19.5633 22.1178 19.5228 22 19.5C21.7297 19.4491 21.4496 19.4595 21.1849 19.5302C20.9201 19.6009 20.6791 19.7297 20.4833 19.905C20.4117 19.9763 20.3449 20.0514 20.2833 20.13C20.2203 20.2136 20.1698 20.3044 20.1333 20.4C20.0853 20.485 20.0516 20.576 20.0333 20.67C20.0252 20.7699 20.0252 20.8701 20.0333 20.97C20.0352 21.3635 20.2088 21.7406 20.5167 22.02C20.6608 22.1695 20.8364 22.2919 21.0333 22.38ZM7.7 22.38C7.90037 22.4569 8.11554 22.4976 8.33333 22.5C8.77536 22.5 9.19928 22.342 9.51184 22.0607C9.8244 21.7794 10 21.3978 10 21C10.0082 20.9001 10.0082 20.7999 10 20.7C9.98176 20.606 9.94805 20.515 9.9 20.43C9.86352 20.3344 9.81308 20.2436 9.75 20.16C9.68847 20.0814 9.62167 20.0063 9.55 19.935L9.3 19.755L9 19.62L8.66667 19.5C8.39637 19.4491 8.11627 19.4595 7.85154 19.5302C7.58681 19.6009 7.34574 19.7297 7.15 19.905C7.07832 19.9763 7.01153 20.0514 6.95 20.13C6.88692 20.2136 6.83648 20.3044 6.8 20.4C6.75195 20.485 6.71824 20.576 6.7 20.67C6.69182 20.7699 6.69182 20.8701 6.7 20.97C6.70184 21.3635 6.87543 21.7406 7.18333 22.02C7.32748 22.1695 7.50307 22.2919 7.7 22.38Z" fill="#EDF1F7"/>
</svg>
