<svg width="30" height="30" viewBox="0 0 30 30" fill="none" xmlns="http://www.w3.org/2000/svg">
<path d="M28.7368 0.28183C27.663 0.0986942 26.5757 0.00442715 25.4861 6.45265e-06C21.7686 -0.00301127 18.1286 1.05251 15 3.04074C11.8634 1.07861 8.22397 0.0490006 4.51391 0.0741706C3.42433 0.0785913 2.33701 0.172858 1.26323 0.355995C0.911503 0.416036 0.592987 0.59845 0.365038 0.870387C0.137089 1.14232 0.0146873 1.48591 0.019876 1.83928V19.6387C0.0166677 19.8566 0.0620094 20.0726 0.152675 20.2712C0.24334 20.4698 0.377101 20.6462 0.54444 20.7879C0.711779 20.9295 0.908583 21.0328 1.12085 21.0906C1.33312 21.1483 1.55563 21.1591 1.77255 21.122C3.91923 20.754 6.11859 20.815 8.24107 21.3016C10.3635 21.7881 12.3662 22.6903 14.1312 23.955L14.3109 24.0589H14.4757C14.6418 24.1274 14.82 24.1627 15 24.1627C15.18 24.1627 15.3582 24.1274 15.5243 24.0589H15.6891L15.8688 23.955C17.6215 22.6621 19.6184 21.7306 21.7413 21.2159C23.8642 20.7013 26.0698 20.6138 28.2274 20.9588C28.4444 20.9959 28.6669 20.9852 28.8792 20.9274C29.0914 20.8697 29.2882 20.7663 29.4556 20.6247C29.6229 20.4831 29.7567 20.3067 29.8473 20.1081C29.938 19.9094 29.9833 19.6935 29.9801 19.4755V1.67612C29.9645 1.33816 29.8327 1.01563 29.6066 0.762026C29.3804 0.508424 29.0735 0.338991 28.7368 0.28183ZM13.502 19.9947C10.7305 18.551 7.64553 17.7975 4.51391 17.7994C4.01957 17.7994 3.52523 17.7994 3.0159 17.7994V2.96658C3.51482 2.9381 4.01499 2.9381 4.51391 2.96658C7.70975 2.96308 10.8358 3.89169 13.502 5.63649V19.9947ZM26.9841 17.8587C26.4748 17.8587 25.9804 17.8587 25.4861 17.8587C22.3545 17.8568 19.2695 18.6103 16.498 20.054V5.63649C19.1642 3.89169 22.2902 2.96308 25.4861 2.96658C25.985 2.9381 26.4852 2.9381 26.9841 2.96658V17.8587ZM28.7368 24.0144C27.663 23.8312 26.5757 23.737 25.4861 23.7326C21.7686 23.7295 18.1286 24.7851 15 26.7733C11.8714 24.7851 8.23143 23.7295 4.51391 23.7326C3.42433 23.737 2.33701 23.8312 1.26323 24.0144C1.06823 24.045 0.881267 24.1135 0.7131 24.216C0.544933 24.3184 0.398875 24.4527 0.283326 24.6113C0.167778 24.7698 0.0850177 24.9494 0.0398052 25.1397C-0.00540733 25.33 -0.0121802 25.5273 0.019876 25.7202C0.096003 26.1053 0.323209 26.445 0.651723 26.6646C0.980237 26.8842 1.38328 26.966 1.77255 26.892C3.91923 26.5239 6.11859 26.585 8.24107 27.0715C10.3635 27.5581 12.3662 28.4603 14.1312 29.725C14.3849 29.9039 14.6886 30 15 30C15.3114 30 15.6151 29.9039 15.8688 29.725C17.6338 28.4603 19.6365 27.5581 21.7589 27.0715C23.8814 26.585 26.0808 26.5239 28.2274 26.892C28.6167 26.966 29.0198 26.8842 29.3483 26.6646C29.6768 26.445 29.904 26.1053 29.9801 25.7202C30.0122 25.5273 30.0054 25.33 29.9602 25.1397C29.915 24.9494 29.8322 24.7698 29.7167 24.6113C29.6011 24.4527 29.4551 24.3184 29.2869 24.216C29.1187 24.1135 28.9318 24.045 28.7368 24.0144Z" fill="#EDF1F7"/>
</svg>
