<svg width="30" height="30" viewBox="0 0 30 30" fill="none" xmlns="http://www.w3.org/2000/svg">
<path d="M30 13.4973C30.0041 12.4382 29.7293 11.3967 29.2034 10.4784C28.6774 9.56008 27.9189 8.79753 27.0047 8.26796C27.0273 8.00798 27.0273 7.74653 27.0047 7.48656C27.0047 6.29095 26.5314 5.1443 25.6888 4.29888C24.8462 3.45345 23.7034 2.97849 22.5118 2.97849H22.2423C21.9929 2.28472 21.5776 1.66294 21.033 1.16768C20.4884 0.672409 19.8309 0.318787 19.1184 0.137818C18.4058 -0.0431504 17.6599 -0.0459386 16.946 0.129699C16.2321 0.305336 15.572 0.654034 15.0237 1.14521C14.4754 0.654034 13.8154 0.305336 13.1015 0.129699C12.3876 -0.0459386 11.6417 -0.0431504 10.9291 0.137818C10.2165 0.318787 9.55911 0.672409 9.01446 1.16768C8.46981 1.66294 8.05459 2.28472 7.80519 2.97849H7.53562C6.34404 2.97849 5.20126 3.45345 4.35868 4.29888C3.51611 5.1443 3.04275 6.29095 3.04275 7.48656C3.02021 7.74653 3.02021 8.00798 3.04275 8.26796C2.19279 8.75001 1.47314 9.43321 0.946442 10.2581C0.419742 11.0829 0.101959 12.0245 0.0207565 13.0007C-0.0604464 13.977 0.0973916 14.9584 0.480531 15.8594C0.863671 16.7605 1.4605 17.5539 2.21906 18.1707C1.72825 19.0892 1.4839 20.12 1.51 21.1619C1.53611 22.2038 1.83177 23.221 2.36796 24.1136C2.90415 25.0063 3.66245 25.7437 4.56843 26.2535C5.4744 26.7633 6.49692 27.0279 7.53562 27.0215H7.80519C8.05459 27.7153 8.46981 28.3371 9.01446 28.8323C9.55911 29.3276 10.2165 29.6812 10.9291 29.8622C11.6417 30.0431 12.3876 30.0459 13.1015 29.8703C13.8154 29.6947 14.4754 29.346 15.0237 28.8548C15.572 29.346 16.2321 29.6947 16.946 29.8703C17.6599 30.0459 18.4058 30.0431 19.1184 29.8622C19.8309 29.6812 20.4884 29.3276 21.033 28.8323C21.5776 28.3371 21.9929 27.7153 22.2423 27.0215H22.5118C23.5442 27.015 24.5573 26.7408 25.453 26.2257C26.3487 25.7106 27.0965 24.9719 27.6239 24.0814C28.1512 23.1909 28.4403 22.1788 28.463 21.1431C28.4857 20.1075 28.2413 19.0836 27.7535 18.1707C28.4521 17.6095 29.0164 16.8984 29.4052 16.0897C29.7939 15.281 29.9972 14.3952 30 13.4973ZM13.5261 9.81573C13.1999 9.62853 12.8594 9.46774 12.5077 9.33486C12.1304 9.20733 11.718 9.23543 11.3613 9.41297C11.0046 9.59051 10.7328 9.90295 10.6057 10.2816C10.4786 10.6602 10.5066 11.0739 10.6836 11.4318C10.8605 11.7897 11.1719 12.0624 11.5492 12.19C12.1257 12.3991 12.6244 12.7807 12.9779 13.2832C13.3314 13.7857 13.5228 14.3849 13.5261 15V17.3292C13.1999 17.142 12.8594 16.9812 12.5077 16.8483C12.1304 16.7208 11.718 16.7489 11.3613 16.9264C11.0046 17.1039 10.7328 17.4164 10.6057 17.795C10.4786 18.1736 10.5066 18.5874 10.6836 18.9453C10.8605 19.3032 11.1719 19.5759 11.5492 19.7034C12.1257 19.9125 12.6244 20.2941 12.9779 20.7966C13.3314 21.2991 13.5228 21.8984 13.5261 22.5134V25.5188C13.5261 25.9174 13.3683 26.2996 13.0875 26.5814C12.8066 26.8632 12.4257 27.0215 12.0285 27.0215C11.7387 27.0196 11.4558 26.9334 11.2139 26.7734C10.972 26.6134 10.7815 26.3863 10.6657 26.1199C10.9168 25.972 11.157 25.8063 11.3845 25.624C11.5359 25.4977 11.6611 25.3427 11.7528 25.1679C11.8446 24.9931 11.9011 24.8018 11.9192 24.6051C11.9373 24.4083 11.9165 24.2099 11.8582 24.0212C11.7999 23.8325 11.7051 23.6572 11.5792 23.5052C11.4533 23.3533 11.2989 23.2277 11.1246 23.1356C10.9504 23.0436 10.7598 22.9869 10.5637 22.9687C10.3676 22.9506 10.1699 22.9714 9.98181 23.0299C9.79373 23.0884 9.61899 23.1836 9.46755 23.3099C8.9268 23.7666 8.24248 24.0168 7.53562 24.0161C6.74123 24.0161 5.97938 23.6995 5.41766 23.1359C4.85594 22.5723 4.54038 21.8078 4.54038 21.0108C4.54754 20.4451 4.71365 19.893 5.01961 19.4179C5.35571 19.4784 5.69654 19.5086 6.038 19.5081C6.43519 19.5081 6.81612 19.3497 7.09698 19.0679C7.37783 18.7861 7.53562 18.4039 7.53562 18.0054C7.53562 17.6068 7.37783 17.2246 7.09698 16.9428C6.81612 16.661 6.43519 16.5027 6.038 16.5027C5.68424 16.5047 5.3334 16.4384 5.00464 16.3073C4.46601 16.1124 3.99435 15.7667 3.64553 15.3111C3.29671 14.8555 3.08536 14.3091 3.0365 13.7366C2.98765 13.1642 3.10334 12.5897 3.36988 12.0812C3.63641 11.5728 4.04262 11.1516 4.54038 10.8676C4.75318 11.0641 4.98382 11.2401 5.22928 11.3935C5.57484 11.5928 5.98514 11.6462 6.36992 11.5419C6.75469 11.4376 7.08243 11.1843 7.28102 10.8376C7.47962 10.4908 7.53281 10.0791 7.42889 9.69306C7.32498 9.30698 7.07246 8.97814 6.7269 8.77887C6.51608 8.66218 6.34025 8.49095 6.21771 8.28298C6.07925 8.04172 6.01661 7.76413 6.038 7.48656C6.038 7.08802 6.19578 6.70581 6.47664 6.424C6.7575 6.14219 7.13843 5.98387 7.53562 5.98387C7.63995 5.96927 7.74579 5.96927 7.85012 5.98387C7.9294 6.22531 8.02446 6.46124 8.13467 6.69013C8.23251 6.86232 8.36333 7.01339 8.5196 7.13463C8.67588 7.25588 8.85451 7.3449 9.04522 7.39658C9.23592 7.44826 9.43494 7.46157 9.63079 7.43575C9.82665 7.40993 10.0155 7.34548 10.1864 7.24613C10.5184 7.04568 10.7601 6.72391 10.8607 6.34841C10.9612 5.97292 10.9128 5.57294 10.7256 5.23253C10.5999 5.00202 10.533 4.74391 10.5309 4.48118C10.5309 4.08264 10.6886 3.70043 10.9695 3.41862C11.2504 3.13681 11.6313 2.97849 12.0285 2.97849C12.4257 2.97849 12.8066 3.13681 13.0875 3.41862C13.3683 3.70043 13.5261 4.08264 13.5261 4.48118V9.81573ZM25.0428 16.3073C24.7141 16.4384 24.3632 16.5047 24.0095 16.5027C23.6123 16.5027 23.2313 16.661 22.9505 16.9428C22.6696 17.2246 22.5118 17.6068 22.5118 18.0054C22.5118 18.4039 22.6696 18.7861 22.9505 19.0679C23.2313 19.3497 23.6123 19.5081 24.0095 19.5081C24.3509 19.5086 24.6917 19.4784 25.0278 19.4179C25.3338 19.893 25.4999 20.4451 25.5071 21.0108C25.5071 21.8078 25.1915 22.5723 24.6298 23.1359C24.0681 23.6995 23.3062 24.0161 22.5118 24.0161C21.805 24.0168 21.1207 23.7666 20.5799 23.3099C20.2741 23.0548 19.8798 22.9321 19.4838 22.9687C19.0878 23.0054 18.7225 23.1983 18.4683 23.5052C18.2141 23.8121 18.0918 24.2077 18.1283 24.6051C18.1648 25.0024 18.3571 25.3689 18.663 25.624C18.8905 25.8063 19.1307 25.972 19.3818 26.1199C19.2659 26.3863 19.0755 26.6134 18.8336 26.7734C18.5917 26.9334 18.3087 27.0196 18.019 27.0215C17.6218 27.0215 17.2409 26.8632 16.96 26.5814C16.6791 26.2996 16.5214 25.9174 16.5214 25.5188V22.5134C16.5247 21.8984 16.716 21.2991 17.0695 20.7966C17.423 20.2941 17.9217 19.9125 18.4982 19.7034C18.8755 19.5759 19.1869 19.3032 19.3639 18.9453C19.5408 18.5874 19.5688 18.1736 19.4417 17.795C19.3146 17.4164 19.0428 17.1039 18.6861 16.9264C18.3294 16.7489 17.9171 16.7208 17.5397 16.8483C17.1881 16.9812 16.8475 17.142 16.5214 17.3292V15C16.5247 14.3849 16.716 13.7857 17.0695 13.2832C17.423 12.7807 17.9217 12.3991 18.4982 12.19C18.8755 12.0624 19.1869 11.7897 19.3639 11.4318C19.5408 11.0739 19.5688 10.6602 19.4417 10.2816C19.3146 9.90295 19.0428 9.59051 18.6861 9.41297C18.3294 9.23543 17.9171 9.20733 17.5397 9.33486C17.1881 9.46774 16.8475 9.62853 16.5214 9.81573V4.48118C16.5214 4.08264 16.6791 3.70043 16.96 3.41862C17.2409 3.13681 17.6218 2.97849 18.019 2.97849C18.4162 2.97849 18.7971 3.13681 19.078 3.41862C19.3588 3.70043 19.5166 4.08264 19.5166 4.48118C19.5145 4.74391 19.4476 5.00202 19.3219 5.23253C19.2223 5.40314 19.1572 5.5918 19.1303 5.78771C19.1035 5.98362 19.1155 6.18291 19.1656 6.37416C19.2157 6.56542 19.3029 6.74487 19.4222 6.90224C19.5416 7.0596 19.6907 7.19179 19.8611 7.29121C20.032 7.39057 20.2208 7.45501 20.4167 7.48083C20.6125 7.50665 20.8115 7.49334 21.0022 7.44166C21.193 7.38998 21.3716 7.30096 21.5279 7.17971C21.6841 7.05847 21.815 6.9074 21.9128 6.73521C22.0249 6.49169 22.12 6.24063 22.1973 5.98387C22.3017 5.96927 22.4075 5.96927 22.5118 5.98387C22.909 5.98387 23.29 6.14219 23.5708 6.424C23.8517 6.70581 24.0095 7.08802 24.0095 7.48656C24.0072 7.78114 23.9186 8.06854 23.7549 8.31304C23.6324 8.50804 23.4623 8.66839 23.2607 8.77887C22.9151 8.97814 22.6626 9.30698 22.5587 9.69306C22.4547 10.0791 22.5079 10.4908 22.7065 10.8376C22.9051 11.1843 23.2329 11.4376 23.6176 11.5419C24.0024 11.6462 24.4127 11.5928 24.7583 11.3935C25.0272 11.2476 25.2784 11.0712 25.5071 10.8676C26.0065 11.1466 26.416 11.5631 26.6872 12.068C26.9583 12.5729 27.0798 13.1452 27.0373 13.7171C26.9948 14.2891 26.79 14.8369 26.4472 15.2959C26.1044 15.7548 25.6379 16.1058 25.1027 16.3073H25.0428Z" fill="#EDF1F7"/>
</svg>
