<svg width="36" height="26" viewBox="0 0 36 26" fill="none" xmlns="http://www.w3.org/2000/svg">
<path d="M30.25 8.83335H29.69L27.5025 3.63335C27.1118 2.70878 26.4399 1.9165 25.5731 1.35819C24.7062 0.799891 23.684 0.501048 22.6375 0.50002H12.1375C10.9218 0.496707 9.74249 0.895339 8.80098 1.62787C7.85947 2.36041 7.21409 3.38144 6.975 4.51668L6.065 8.83335H5.75C4.35761 8.83335 3.02226 9.36013 2.03769 10.2978C1.05312 11.2355 0.5 12.5073 0.5 13.8333V18.8333C0.5 19.2754 0.684374 19.6993 1.01256 20.0119C1.34075 20.3244 1.78587 20.5 2.25 20.5H4C4 21.8261 4.55312 23.0979 5.53769 24.0355C6.52226 24.9732 7.85761 25.5 9.25 25.5C10.6424 25.5 11.9777 24.9732 12.9623 24.0355C13.9469 23.0979 14.5 21.8261 14.5 20.5H21.5C21.5 21.8261 22.0531 23.0979 23.0377 24.0355C24.0223 24.9732 25.3576 25.5 26.75 25.5C28.1424 25.5 29.4777 24.9732 30.4623 24.0355C31.4469 23.0979 32 21.8261 32 20.5H33.75C34.2141 20.5 34.6592 20.3244 34.9874 20.0119C35.3156 19.6993 35.5 19.2754 35.5 18.8333V13.8333C35.5 12.5073 34.9469 11.2355 33.9623 10.2978C32.9777 9.36013 31.6424 8.83335 30.25 8.83335ZM19.75 3.83335H22.6375C22.985 3.83635 23.3237 3.93781 23.6104 4.1248C23.8972 4.3118 24.1189 4.57587 24.2475 4.88335L25.91 8.83335H19.75V3.83335ZM10.405 5.16668C10.4868 4.78456 10.7067 4.44186 11.0265 4.19823C11.3463 3.95461 11.7456 3.82549 12.155 3.83335H16.25V8.83335H9.635L10.405 5.16668ZM9.25 22.1667C8.90388 22.1667 8.56554 22.0689 8.27775 21.8858C7.98997 21.7027 7.76566 21.4424 7.63321 21.1378C7.50076 20.8333 7.4661 20.4982 7.53363 20.1749C7.60115 19.8516 7.76782 19.5546 8.01256 19.3215C8.25731 19.0884 8.56913 18.9297 8.90859 18.8654C9.24806 18.8011 9.59993 18.8341 9.9197 18.9602C10.2395 19.0864 10.5128 19.3 10.7051 19.5741C10.8974 19.8481 11 20.1704 11 20.5C11 20.942 10.8156 21.366 10.4874 21.6785C10.1592 21.9911 9.71413 22.1667 9.25 22.1667ZM26.75 22.1667C26.4039 22.1667 26.0655 22.0689 25.7778 21.8858C25.49 21.7027 25.2657 21.4424 25.1332 21.1378C25.0008 20.8333 24.9661 20.4982 25.0336 20.1749C25.1012 19.8516 25.2678 19.5546 25.5126 19.3215C25.7573 19.0884 26.0691 18.9297 26.4086 18.8654C26.7481 18.8011 27.0999 18.8341 27.4197 18.9602C27.7395 19.0864 28.0128 19.3 28.2051 19.5741C28.3974 19.8481 28.5 20.1704 28.5 20.5C28.5 20.942 28.3156 21.366 27.9874 21.6785C27.6593 21.9911 27.2141 22.1667 26.75 22.1667ZM32 17.1667H30.635C30.1429 16.6511 29.5431 16.2391 28.8741 15.9572C28.2051 15.6753 27.4816 15.5297 26.75 15.5297C26.0184 15.5297 25.2949 15.6753 24.6259 15.9572C23.9569 16.2391 23.3571 16.6511 22.865 17.1667H13.135C12.6429 16.6511 12.0432 16.2391 11.3741 15.9572C10.7051 15.6753 9.98158 15.5297 9.25 15.5297C8.51842 15.5297 7.79491 15.6753 7.12588 15.9572C6.45685 16.2391 5.85707 16.6511 5.365 17.1667H4V13.8333C4 13.3913 4.18437 12.9674 4.51256 12.6548C4.84075 12.3423 5.28587 12.1667 5.75 12.1667H30.25C30.7141 12.1667 31.1593 12.3423 31.4874 12.6548C31.8156 12.9674 32 13.3913 32 13.8333V17.1667Z" fill="#EDF1F7"/>
</svg>
