<svg width="20" height="30" viewBox="0 0 20 30" fill="none" xmlns="http://www.w3.org/2000/svg">
<path d="M19.5673 23.235L13.5539 10.095V3H14.7307C15.0428 3 15.3421 2.84196 15.5628 2.56066C15.7835 2.27936 15.9075 1.89782 15.9075 1.5C15.9075 1.10218 15.7835 0.720644 15.5628 0.43934C15.3421 0.158035 15.0428 0 14.7307 0H5.31639C5.00429 0 4.70497 0.158035 4.48428 0.43934C4.26359 0.720644 4.13961 1.10218 4.13961 1.5C4.13961 1.89782 4.26359 2.27936 4.48428 2.56066C4.70497 2.84196 5.00429 3 5.31639 3H6.49318V10.095L0.479803 23.235C0.167418 23.9186 0.00192825 24.695 1.67492e-05 25.4861C-0.00189476 26.2772 0.159839 27.055 0.468915 27.741C0.777992 28.427 1.22349 28.9971 1.7605 29.3937C2.2975 29.7903 2.90705 29.9994 3.52768 30H16.4723C17.093 29.9994 17.7025 29.7903 18.2395 29.3937C18.7765 28.9971 19.222 28.427 19.5311 27.741C19.8402 27.055 20.0019 26.2772 20 25.4861C19.9981 24.695 19.8326 23.9186 19.5202 23.235H19.5673ZM8.682 11.235C8.78579 11.0122 8.84255 10.759 8.84675 10.5V3H11.2003V10.5C11.2025 10.7641 11.2593 11.0229 11.3651 11.25L12.3771 13.5H7.66996L8.682 11.235ZM17.5314 26.235C17.4287 26.4617 17.2813 26.6502 17.1038 26.7818C16.9262 26.9134 16.7248 26.9834 16.5194 26.985H3.57475C3.36938 26.9834 3.16792 26.9134 2.99038 26.7818C2.81283 26.6502 2.66539 26.4617 2.56271 26.235C2.45943 26.007 2.40505 25.7483 2.40505 25.485C2.40505 25.2217 2.45943 24.963 2.56271 24.735L6.29312 16.5H13.7657L17.5314 24.75C17.6347 24.978 17.6891 25.2367 17.6891 25.5C17.6891 25.7633 17.6347 26.022 17.5314 26.25V26.235ZM7.66996 19.5C7.43722 19.5 7.2097 19.588 7.01618 19.7528C6.82266 19.9176 6.67182 20.1519 6.58276 20.426C6.49369 20.7001 6.47038 21.0017 6.51579 21.2926C6.5612 21.5836 6.67327 21.8509 6.83785 22.0607C7.00243 22.2704 7.21211 22.4133 7.44038 22.4712C7.66866 22.5291 7.90527 22.4994 8.1203 22.3858C8.33533 22.2723 8.51912 22.08 8.64843 21.8334C8.77773 21.5867 8.84675 21.2967 8.84675 21C8.84675 20.6022 8.72277 20.2206 8.50208 19.9393C8.28139 19.658 7.98207 19.5 7.66996 19.5ZM12.3771 21C12.1444 21 11.9168 21.088 11.7233 21.2528C11.5298 21.4176 11.379 21.6519 11.2899 21.926C11.2008 22.2001 11.1775 22.5017 11.2229 22.7926C11.2683 23.0836 11.3804 23.3509 11.545 23.5607C11.7096 23.7704 11.9193 23.9133 12.1475 23.9712C12.3758 24.0291 12.6124 23.9994 12.8274 23.8858C13.0425 23.7723 13.2263 23.58 13.3556 23.3334C13.4849 23.0867 13.5539 22.7967 13.5539 22.5C13.5539 22.1022 13.4299 21.7206 13.2092 21.4393C12.9885 21.158 12.6892 21 12.3771 21Z" fill="#EDF1F7"/>
</svg>
