<svg width="16" height="30" viewBox="0 0 16 30" fill="none" xmlns="http://www.w3.org/2000/svg">
<path d="M10.5 13.5H5.5C4.83696 13.5 4.20107 13.1839 3.73223 12.6213C3.26339 12.0587 3 11.2956 3 10.5C3 9.70435 3.26339 8.94129 3.73223 8.37868C4.20107 7.81607 4.83696 7.5 5.5 7.5H11.75C12.0815 7.5 12.3995 7.65804 12.6339 7.93934C12.8683 8.22064 13 8.60218 13 9C13 9.39782 13.1317 9.77936 13.3661 10.0607C13.6005 10.342 13.9185 10.5 14.25 10.5C14.5815 10.5 14.8995 10.342 15.1339 10.0607C15.3683 9.77936 15.5 9.39782 15.5 9C15.5 7.80653 15.1049 6.66193 14.4017 5.81802C13.6984 4.97411 12.7446 4.5 11.75 4.5H9.25V1.5C9.25 1.10218 9.1183 0.720644 8.88388 0.43934C8.64946 0.158035 8.33152 0 8 0C7.66848 0 7.35054 0.158035 7.11612 0.43934C6.8817 0.720644 6.75 1.10218 6.75 1.5V4.5H5.5C4.17392 4.5 2.90215 5.13214 1.96447 6.25736C1.02678 7.38258 0.5 8.9087 0.5 10.5C0.5 12.0913 1.02678 13.6174 1.96447 14.7426C2.90215 15.8679 4.17392 16.5 5.5 16.5H10.5C11.163 16.5 11.7989 16.8161 12.2678 17.3787C12.7366 17.9413 13 18.7044 13 19.5C13 20.2956 12.7366 21.0587 12.2678 21.6213C11.7989 22.1839 11.163 22.5 10.5 22.5H4.25C3.91848 22.5 3.60054 22.342 3.36612 22.0607C3.1317 21.7794 3 21.3978 3 21C3 20.6022 2.8683 20.2206 2.63388 19.9393C2.39946 19.658 2.08152 19.5 1.75 19.5C1.41848 19.5 1.10054 19.658 0.866117 19.9393C0.631696 20.2206 0.5 20.6022 0.5 21C0.5 22.1935 0.895088 23.3381 1.59835 24.182C2.30161 25.0259 3.25544 25.5 4.25 25.5H6.75V28.5C6.75 28.8978 6.8817 29.2794 7.11612 29.5607C7.35054 29.842 7.66848 30 8 30C8.33152 30 8.64946 29.842 8.88388 29.5607C9.1183 29.2794 9.25 28.8978 9.25 28.5V25.5H10.5C11.8261 25.5 13.0979 24.8679 14.0355 23.7426C14.9732 22.6174 15.5 21.0913 15.5 19.5C15.5 17.9087 14.9732 16.3826 14.0355 15.2574C13.0979 14.1321 11.8261 13.5 10.5 13.5Z" fill="#EDF1F7"/>
</svg>
