<svg width="20" height="20" viewBox="0 0 20 20" fill="none" xmlns="http://www.w3.org/2000/svg">
<path d="M19.6574 8.24922L10.6574 0.249223C10.4749 0.0889035 10.2403 0.000488281 9.99743 0.000488281C9.75453 0.000488281 9.51992 0.0889035 9.33743 0.249223L0.337433 8.24922C0.184469 8.38453 0.0766013 8.56344 0.0283327 8.76187C-0.0199359 8.96031 -0.00629088 9.16877 0.0674333 9.35922C0.139952 9.54716 0.267538 9.70881 0.433483 9.82301C0.599427 9.93721 0.795992 9.99863 0.997433 9.99922H1.99743V18.9992C1.99743 19.2644 2.10279 19.5188 2.29033 19.7063C2.47786 19.8939 2.73222 19.9992 2.99743 19.9992H16.9974C17.2626 19.9992 17.517 19.8939 17.7045 19.7063C17.8921 19.5188 17.9974 19.2644 17.9974 18.9992V9.99922H18.9974C19.1989 9.99863 19.3954 9.93721 19.5614 9.82301C19.7273 9.70881 19.8549 9.54716 19.9274 9.35922C20.0012 9.16877 20.0148 8.96031 19.9665 8.76187C19.9183 8.56344 19.8104 8.38453 19.6574 8.24922ZM10.9974 17.9992H8.99743V14.9992C8.99743 14.734 9.10279 14.4797 9.29033 14.2921C9.47786 14.1046 9.73222 13.9992 9.99743 13.9992C10.2627 13.9992 10.517 14.1046 10.7045 14.2921C10.8921 14.4797 10.9974 14.734 10.9974 14.9992V17.9992ZM15.9974 17.9992H12.9974V14.9992C12.9974 14.2036 12.6814 13.4405 12.1188 12.8779C11.5561 12.3153 10.7931 11.9992 9.99743 11.9992C9.20178 11.9992 8.43872 12.3153 7.87611 12.8779C7.3135 13.4405 6.99743 14.2036 6.99743 14.9992V17.9992H3.99743V9.99922H15.9974V17.9992ZM3.62743 7.99922L9.99743 2.33922L16.3674 7.99922H3.62743Z" fill="#EDF1F7"/>
</svg>
