<svg width="22" height="20" viewBox="0 0 22 20" fill="none" xmlns="http://www.w3.org/2000/svg">
<path d="M9.46 3.99745L10 3.40745V6.99746C10 7.26267 10.1054 7.51703 10.2929 7.70456C10.4804 7.8921 10.7348 7.99746 11 7.99746C11.2652 7.99746 11.5196 7.8921 11.7071 7.70456C11.8946 7.51703 12 7.26267 12 6.99746V3.40745L12.54 3.95745C12.6308 4.05998 12.7416 4.14277 12.8657 4.20069C12.9898 4.25861 13.1244 4.29043 13.2613 4.29418C13.3982 4.29793 13.5344 4.27353 13.6615 4.22249C13.7885 4.17145 13.9038 4.09485 14 3.99745C14.0937 3.90449 14.1681 3.79389 14.2189 3.67203C14.2697 3.55017 14.2958 3.41947 14.2958 3.28745C14.2958 3.15544 14.2697 3.02474 14.2189 2.90288C14.1681 2.78102 14.0937 2.67042 14 2.57745L11.71 0.287455C11.6149 0.196414 11.5028 0.125049 11.38 0.0774549C11.1365 -0.0225631 10.8635 -0.0225631 10.62 0.0774549C10.4972 0.125049 10.3851 0.196414 10.29 0.287455L8 2.53745C7.80639 2.73106 7.69762 2.99365 7.69762 3.26745C7.69762 3.54126 7.80639 3.80385 8 3.99745C8.19361 4.19106 8.4562 4.29983 8.73 4.29983C9.0038 4.29983 9.26639 4.19106 9.46 3.99745ZM11 9.99745C10.4067 9.99745 9.82664 10.1734 9.33329 10.503C8.83994 10.8327 8.45542 11.3012 8.22836 11.8494C8.0013 12.3976 7.94189 13.0008 8.05764 13.5827C8.1734 14.1647 8.45912 14.6992 8.87868 15.1188C9.29824 15.5383 9.83279 15.8241 10.4147 15.9398C10.9967 16.0556 11.5999 15.9962 12.1481 15.7691C12.6962 15.542 13.1648 15.1575 13.4944 14.6642C13.8241 14.1708 14 13.5908 14 12.9975C14 12.2018 13.6839 11.4387 13.1213 10.8761C12.5587 10.3135 11.7956 9.99745 11 9.99745ZM11 13.9975C10.8022 13.9975 10.6089 13.9388 10.4444 13.8289C10.28 13.719 10.1518 13.5629 10.0761 13.3801C10.0004 13.1974 9.98063 12.9963 10.0192 12.8024C10.0578 12.6084 10.153 12.4302 10.2929 12.2903C10.4327 12.1505 10.6109 12.0553 10.8049 12.0167C10.9989 11.9781 11.2 11.9979 11.3827 12.0736C11.5654 12.1493 11.7216 12.2774 11.8315 12.4419C11.9414 12.6063 12 12.7997 12 12.9975C12 13.2627 11.8946 13.517 11.7071 13.7046C11.5196 13.8921 11.2652 13.9975 11 13.9975ZM4 12.9975C4 13.1952 4.05865 13.3886 4.16853 13.553C4.27841 13.7175 4.43459 13.8456 4.61732 13.9213C4.80004 13.997 5.00111 14.0168 5.19509 13.9782C5.38907 13.9397 5.56725 13.8444 5.70711 13.7046C5.84696 13.5647 5.9422 13.3865 5.98079 13.1925C6.01937 12.9986 5.99957 12.7975 5.92388 12.6148C5.84819 12.432 5.72002 12.2759 5.55557 12.166C5.39112 12.0561 5.19778 11.9975 5 11.9975C4.73478 11.9975 4.48043 12.1028 4.29289 12.2903C4.10536 12.4779 4 12.7322 4 12.9975ZM18 12.9975C18 12.7997 17.9414 12.6063 17.8315 12.4419C17.7216 12.2774 17.5654 12.1493 17.3827 12.0736C17.2 11.9979 16.9989 11.9781 16.8049 12.0167C16.6109 12.0553 16.4327 12.1505 16.2929 12.2903C16.153 12.4302 16.0578 12.6084 16.0192 12.8024C15.9806 12.9963 16.0004 13.1974 16.0761 13.3801C16.1518 13.5629 16.28 13.719 16.4444 13.8289C16.6089 13.9388 16.8022 13.9975 17 13.9975C17.2652 13.9975 17.5196 13.8921 17.7071 13.7046C17.8946 13.517 18 13.2627 18 12.9975ZM19 5.99746H15C14.7348 5.99746 14.4804 6.10281 14.2929 6.29035C14.1054 6.47788 14 6.73224 14 6.99746C14 7.26267 14.1054 7.51703 14.2929 7.70456C14.4804 7.8921 14.7348 7.99746 15 7.99746H19C19.2652 7.99746 19.5196 8.10281 19.7071 8.29035C19.8946 8.47788 20 8.73224 20 8.99745V16.9975C20 17.2627 19.8946 17.517 19.7071 17.7046C19.5196 17.8921 19.2652 17.9975 19 17.9975H3C2.73478 17.9975 2.48043 17.8921 2.29289 17.7046C2.10536 17.517 2 17.2627 2 16.9975V8.99745C2 8.73224 2.10536 8.47788 2.29289 8.29035C2.48043 8.10281 2.73478 7.99746 3 7.99746H7C7.26522 7.99746 7.51957 7.8921 7.70711 7.70456C7.89464 7.51703 8 7.26267 8 6.99746C8 6.73224 7.89464 6.47788 7.70711 6.29035C7.51957 6.10281 7.26522 5.99746 7 5.99746H3C2.20435 5.99746 1.44129 6.31353 0.87868 6.87613C0.31607 7.43874 0 8.20181 0 8.99745V16.9975C0 17.7931 0.31607 18.5562 0.87868 19.1188C1.44129 19.6814 2.20435 19.9975 3 19.9975H19C19.7956 19.9975 20.5587 19.6814 21.1213 19.1188C21.6839 18.5562 22 17.7931 22 16.9975V8.99745C22 8.20181 21.6839 7.43874 21.1213 6.87613C20.5587 6.31353 19.7956 5.99746 19 5.99746Z" fill="#EDF1F7"/>
</svg>
